<?xml version="1.0" standalone="no"?>
<svg xmlns:xlink="http://www.w3.org/1999/xlink" id="wave" style="transform:rotate(0deg); transition: 0.3s" viewBox="0 0 1440 490" version="1.1" xmlns="http://www.w3.org/2000/svg"><defs><linearGradient id="sw-gradient-0" x1="0" x2="0" y1="1" y2="0"><stop stop-color="rgba(243, 106, 62, 1)" offset="0%"/><stop stop-color="rgba(255, 179, 11, 1)" offset="100%"/></linearGradient></defs><path style="transform:translate(0, 0px); opacity:1" fill="url(#sw-gradient-0)" d="M0,98L24,98C48,98,96,98,144,122.5C192,147,240,196,288,212.3C336,229,384,212,432,212.3C480,212,528,229,576,253.2C624,278,672,310,720,334.8C768,359,816,376,864,334.8C912,294,960,196,1008,204.2C1056,212,1104,327,1152,310.3C1200,294,1248,147,1296,147C1344,147,1392,294,1440,351.2C1488,408,1536,376,1584,367.5C1632,359,1680,376,1728,343C1776,310,1824,229,1872,220.5C1920,212,1968,278,2016,318.5C2064,359,2112,376,2160,351.2C2208,327,2256,261,2304,261.3C2352,261,2400,327,2448,343C2496,359,2544,327,2592,302.2C2640,278,2688,261,2736,220.5C2784,180,2832,114,2880,147C2928,180,2976,310,3024,367.5C3072,425,3120,408,3168,408.3C3216,408,3264,425,3312,432.8C3360,441,3408,441,3432,441L3456,441L3456,490L3432,490C3408,490,3360,490,3312,490C3264,490,3216,490,3168,490C3120,490,3072,490,3024,490C2976,490,2928,490,2880,490C2832,490,2784,490,2736,490C2688,490,2640,490,2592,490C2544,490,2496,490,2448,490C2400,490,2352,490,2304,490C2256,490,2208,490,2160,490C2112,490,2064,490,2016,490C1968,490,1920,490,1872,490C1824,490,1776,490,1728,490C1680,490,1632,490,1584,490C1536,490,1488,490,1440,490C1392,490,1344,490,1296,490C1248,490,1200,490,1152,490C1104,490,1056,490,1008,490C960,490,912,490,864,490C816,490,768,490,720,490C672,490,624,490,576,490C528,490,480,490,432,490C384,490,336,490,288,490C240,490,192,490,144,490C96,490,48,490,24,490L0,490Z"/></svg>